# xmcd CD database file
#
# Track frame offsets:
#	150
#	19540
#	42460
#
# Disc length: 822 seconds
#
# Revision: 4
# Processed by: cddbd v1.5.1PL0 Copyright (c) Steve Scherf et al.
# Submitted via: CDex 1.51
#
DISCID=1b033403
DTITLE=椎名へきる - ラッキーDAY
DYEAR=1995
DGENRE=Japanese Pop
TTITLE0=ラッキーDAY
TTITLE1=夕暮れのジョギング
TTITLE2=ラッキーDAY(カラオケ)
EXTD=YEAR: 1995
EXTT0=
EXTT1=
EXTT2=
PLAYORDER=
